<svg id="Layer_1" data-name="Layer 1" xmlns="http://www.w3.org/2000/svg" xmlns:xlink="http://www.w3.org/1999/xlink" viewBox="0 0 277.56 277.56"><defs><style>.cls-1,.cls-2,.cls-3,.cls-4{fill-rule:evenodd;}.cls-1{fill:url(#linear-gradient);}.cls-2{fill:url(#linear-gradient-2);}.cls-3{fill:url(#linear-gradient-3);}.cls-4{fill:url(#linear-gradient-4);}</style><linearGradient id="linear-gradient" x1="147.9" y1="282.12" x2="147.9" y2="45.9" gradientUnits="userSpaceOnUse"><stop offset="0" stop-color="#801100"/><stop offset="0.33" stop-color="#971801"/><stop offset="0.74" stop-color="#ae1f03"/><stop offset="1" stop-color="#b62203"/></linearGradient><linearGradient id="linear-gradient-2" x1="149.93" y1="-24.21" x2="149.93" y2="190.52" gradientUnits="userSpaceOnUse"><stop offset="0" stop-color="#4a7bff"/><stop offset="0.09" stop-color="#4c85ff"/><stop offset="0.48" stop-color="#54aaff"/><stop offset="0.8" stop-color="#59c1ff"/><stop offset="1" stop-color="#5bc9ff"/></linearGradient><linearGradient id="linear-gradient-3" x1="13.9" y1="218.34" x2="187.9" y2="162.34" gradientUnits="userSpaceOnUse"><stop offset="0" stop-color="#b62203"/><stop offset="0.02" stop-color="#b82403"/><stop offset="0.44" stop-color="#dd4701"/><stop offset="0.78" stop-color="#f45c00"/><stop offset="1" stop-color="#fc6400"/></linearGradient><linearGradient id="linear-gradient-4" x1="-8.68" y1="130.22" x2="176.35" y2="130.22" gradientUnits="userSpaceOnUse"><stop offset="0" stop-color="#fc6400"/><stop offset="0.01" stop-color="#fc6601"/><stop offset="0.1" stop-color="#fa7c0f"/><stop offset="0.2" stop-color="#f98c19"/><stop offset="0.33" stop-color="#f89821"/><stop offset="0.51" stop-color="#f79f25"/><stop offset="1" stop-color="#f7a126"/></linearGradient></defs><path class="cls-1" d="M277.4,138.74a138.7,138.7,0,0,1-259,69A90.5,90.5,0,0,0,92,245.56c2.3,0,4.6-.09,6.86-.26a90.58,90.58,0,0,0,8.61-179.58,112,112,0,0,1,169.27,59.62C277.19,129.74,277.4,134.23,277.4,138.74Z"/><path class="cls-2" d="M276.88,125.39A112,112,0,0,0,107.6,65.77a90.6,90.6,0,0,1,74.87,82.29c-.11.15-.22.3-.35.45A118.84,118.84,0,0,1,140,156.15a119.57,119.57,0,0,1-77.62-28.5,120.21,120.21,0,0,1-30.75-40A118.82,118.82,0,0,1,23,62.56a138.69,138.69,0,0,1,253.89,62.83Z"/><path class="cls-3" d="M182.73,155A90.57,90.57,0,0,1,99,245.35c-2.26.17-4.56.26-6.85.26a90.5,90.5,0,0,1-73.61-37.78l0,0A139,139,0,0,1,2.61,164.93a119.91,119.91,0,0,0,179.51-16.42,1,1,0,0,0,.37-.13C182.64,150.57,182.73,152.79,182.73,155Z"/><path class="cls-4" d="M182.12,148.51a119.7,119.7,0,0,1-97,49.36A119.62,119.62,0,0,1,2.61,164.93c-.35-1.89-.68-3.79-1-5.73A139,139,0,0,1,23,62.56a118.82,118.82,0,0,0,8.64,25.07,120.21,120.21,0,0,0,30.75,40A119.57,119.57,0,0,0,140,156.15,118.84,118.84,0,0,0,182.12,148.51Z"/></svg>